<svg width="516" height="361" viewBox="0 0 516 361" fill="none" xmlns="http://www.w3.org/2000/svg">
<g opacity="0.9">
<path d="M495.374 357.756H44.2136C42.8505 357.005 -36.8021 312.831 21.0238 272.055C60.4583 244.244 32.0838 224.05 27.7945 211.32C22.8703 196.703 12.665 125.965 65.4767 117.698C168.182 101.619 82.8953 21.8135 176.289 5.58173C197.368 1.9194 220.282 -0.000244141 242.74 -0.000244141C312.316 -0.000244141 377.482 18.4315 369.901 60.5369C362.666 100.702 416.449 84.3397 450.265 99.3522C502.058 122.345 448.669 193.182 482.291 213.666C513.526 232.695 532.769 326.561 495.374 357.756Z" fill="black"/>
</g>
<path d="M442.957 120.508C442.957 120.508 435.572 136.587 430.604 143.379C425.633 150.171 420.898 156.665 416.936 175.516C412.967 194.367 413.649 196.261 412.561 201.13C411.476 205.999 404.415 225.726 404.372 229.343C404.332 232.96 390.098 253.553 386.451 263.192C382.807 272.83 376.347 286.597 376.711 293.606L378.333 293.194C378.333 293.194 379.654 276.851 390.905 260.334C402.159 243.816 400.549 240.698 413.328 232.212C426.108 223.727 434.359 200.288 434.359 200.288C434.359 200.288 447.357 174.828 446.755 161.593C446.15 148.358 449.599 136.422 442.957 120.508Z" fill="#256653"/>
<path d="M425.662 95.7785C425.662 95.7785 425.231 106.34 421.826 112.617C418.419 118.89 415.483 122.701 414.866 129.489C414.249 136.277 412.108 153.779 402.607 162.323C393.107 170.866 391.894 196.467 384.662 204.211C377.432 211.957 376.487 217.523 377.823 230.805C379.156 244.088 383.692 262.495 373.203 286.522L370.833 280.546C370.833 280.546 378.337 260.779 376.522 249.204C374.703 237.632 368.381 220.142 370.695 211.754C373.009 203.367 364.406 201.729 369.588 189.043C374.768 176.357 372.64 171.949 379.695 160.981C379.695 160.981 380.417 160.467 382.27 151.187C384.126 141.906 399.076 124.897 405.966 119.093C412.854 113.287 422.783 103.986 425.662 95.7785Z" fill="#256653"/>
<path d="M397.601 148.074C397.601 148.074 389.349 162.199 389.234 171.29C389.117 180.382 390.101 187.777 385.927 200.225C381.753 212.676 390.038 220.546 387.65 227.42C385.261 234.294 385.079 242.432 385.149 248.603C385.222 254.775 375.699 275.199 374.251 285.54C372.802 295.882 374.653 295.916 374.653 295.916C374.653 295.916 376.232 282.263 378.425 277.749C380.615 273.234 387.277 257.668 388.832 251.645C390.388 245.623 394.607 241.759 398.248 231.56C401.887 221.36 407.061 212.771 406.667 198.298C406.27 183.827 412.094 168.552 397.601 148.074Z" fill="#3C8F7C"/>
<path d="M380.137 286.439C380.137 286.439 383.982 268.513 400.204 266.722C416.429 264.933 425.96 268.141 437.421 255.044C448.882 241.946 455.536 221.164 459.198 217.586C459.198 217.586 453.44 214.623 443.866 223.573C434.293 232.523 427.569 239.314 422.025 244.524C416.484 249.736 411.984 246.338 406.133 249.773C401.228 252.652 394.887 260.974 392.095 265.332C391.187 266.748 390.111 268.048 388.873 269.187C387.751 270.225 386.412 271.496 385.553 272.432C383.837 274.303 378.882 286.504 378.882 286.504L380.137 286.439Z" fill="#3C8F7C"/>
<path d="M374.417 283.277C374.417 283.277 380.137 261.353 376.305 250.624C372.476 239.897 360.489 231.958 360.969 225.219C361.45 218.479 369.149 200.264 362.872 186.705C362.872 186.705 360.489 198.8 358.137 201.491C355.783 204.183 339.641 215.032 342.502 229.365C345.363 243.695 361.058 247.045 364.924 251.264C368.787 255.482 374.007 255.478 374.04 258.283C374.072 261.088 375.091 271.288 373.357 281.353L374.417 283.277Z" fill="#3C8F7C"/>
<path d="M380.669 268.606L388.702 245.468C388.702 245.468 393.422 226.857 396.154 211.338C398.891 195.819 397.603 148.073 397.603 148.073C397.603 148.073 389.352 162.198 389.236 171.289C389.12 180.381 390.103 187.776 385.93 200.225C381.756 212.675 390.04 220.546 387.65 227.42C385.265 234.293 385.08 242.431 385.151 248.602C385.224 254.775 375.701 275.199 374.252 285.539C373.46 291.205 373.655 293.774 373.996 294.941C372.709 285.896 380.669 268.606 380.669 268.606Z" fill="#327F6B"/>
<path d="M420.233 254.823C413.069 256.253 406.661 255.766 398.154 262.097C389.647 268.428 384.646 275.189 384.646 275.189C384.646 275.189 380.825 282.021 379.241 285.625C379.015 286.175 378.882 286.504 378.882 286.504L380.137 286.439C380.137 286.439 383.982 268.513 400.204 266.722C416.429 264.933 425.96 268.141 437.421 255.044C448.882 241.946 455.536 221.164 459.198 217.586C459.198 217.586 447.009 227.069 439.477 235.463C431.944 243.854 427.401 253.39 420.233 254.823Z" fill="#327F6B"/>
<path d="M358.137 201.491C355.783 204.183 339.639 215.033 342.503 229.365C345.361 243.696 361.058 247.046 364.922 251.265C368.786 255.482 374.008 255.478 374.039 258.283C374.072 261.089 375.09 271.289 373.357 281.354L373.821 282.194C374.666 278.266 375.842 272.283 376.225 267.741C376.85 260.366 375.655 257.311 373.285 251.336C370.912 245.36 356.181 233.189 352.489 226.79C348.797 220.39 359.607 209.694 362.006 204.53C364.405 199.366 362.872 186.705 362.872 186.705C362.872 186.705 360.488 198.801 358.137 201.491Z" fill="#327F6B"/>
<path d="M396.433 272.685L398.953 266.59C400.91 262.107 405.917 259.967 410.136 261.81C420.772 266.451 425.394 279.371 420.462 290.668L416.858 298.927C415.28 302.544 415.829 306.526 417.959 309.331C419.894 311.88 420.209 315.425 418.866 318.497L416.968 322.851C414.909 327.564 410.906 331.056 406.157 332.497C403.379 333.338 400.926 335.422 399.629 338.394L396.939 344.558C393.965 351.373 386.352 354.628 379.934 351.829L376.273 350.23C369.858 347.429 367.069 339.634 370.044 332.817C374.857 324.668 374.472 318.586 372.765 314.46C370.259 308.394 370.288 301.415 373.002 295.203L373.382 294.331C376.243 287.774 381.773 282.879 388.352 280.783C391.259 279.858 394.288 277.598 396.433 272.685Z" fill="#50BFA5"/>
<path d="M351.027 358.756C356.186 352.064 384.486 316.221 402.935 310.246C423.305 303.653 404.106 329.842 404.106 329.842C404.106 329.842 440.236 290.333 453.498 293.895C465.651 297.16 453.498 321.648 453.498 321.648C453.498 321.648 467.185 308.087 483.785 308.087C499.942 308.087 472.498 356.181 471.018 358.756H351.027Z" fill="#96D9C9"/>
<path d="M459.912 281.213C445.15 304.269 434.374 329.881 428.216 357.09L427.205 356.818C433.337 330.178 444.042 304.612 458.776 281.581C462.201 276.231 465.901 269.88 472.316 267.792C472.438 267.752 472.486 267.94 472.366 267.984C466.509 270.191 463.117 276.209 459.912 281.213Z" fill="#3C8F7C"/>
<path d="M431.775 358.045C448.272 335.613 468.325 314.878 492.169 296.847C492.412 296.667 492.731 297.083 492.492 297.267C469.874 314.652 449.865 335.181 433.026 358.38L431.775 358.045Z" fill="#3C8F7C"/>
<path d="M461.261 266.916C461.64 267.475 463.095 268.933 463.522 270.847C464.096 272.663 463.643 274.938 463.596 274.858C463.487 274.904 465.277 273.388 465.839 270.978C466.564 268.664 466.057 265.457 465.153 264.395C463.596 261.992 460.875 261.748 460.345 262.913C459.785 264.07 460.495 265.645 461.261 266.916Z" fill="#3C8F7C"/>
<path d="M464.791 287.495C464.243 287.104 462.81 285.621 460.906 285.155C459.101 284.547 456.82 284.955 456.897 285.005C456.85 285.114 458.401 283.35 460.823 282.84C463.148 282.16 466.345 282.73 467.389 283.654C469.761 285.258 469.951 287.984 468.777 288.489C467.608 289.026 466.048 288.285 464.791 287.495Z" fill="#3C8F7C"/>
<path d="M459.461 296.514C458.913 296.124 457.485 294.64 455.579 294.176C453.772 293.566 451.49 293.974 451.57 294.024C451.52 294.133 453.071 292.37 455.494 291.858C457.819 291.179 461.019 291.75 462.063 292.673C464.432 294.277 464.623 297.003 463.447 297.508C462.28 298.047 460.72 297.304 459.461 296.514Z" fill="#3C8F7C"/>
<path d="M478.473 317.437C477.924 317.045 476.494 315.561 474.588 315.097C472.783 314.487 470.499 314.895 470.578 314.945C470.532 315.054 472.081 313.291 474.502 312.779C476.829 312.1 480.028 312.671 481.071 313.594C483.443 315.198 483.632 317.924 482.458 318.429C481.287 318.968 479.729 318.225 478.473 317.437Z" fill="#3C8F7C"/>
<path d="M488.187 308.879C487.637 308.489 486.207 307.005 484.301 306.539C482.495 305.929 480.213 306.339 480.291 306.389C480.244 306.498 481.795 304.735 484.217 304.222C486.543 303.544 489.738 304.115 490.783 305.036C493.155 306.641 493.345 309.366 492.17 309.873C491.001 310.41 489.443 309.669 488.187 308.879Z" fill="#3C8F7C"/>
<path d="M453.804 277.122C454.268 277.614 455.933 278.824 456.655 280.649C457.511 282.35 457.421 284.668 457.36 284.596C457.258 284.66 458.79 282.879 458.964 280.411C459.315 278.012 458.308 274.925 457.25 274.018C455.333 271.89 452.607 272.081 452.267 273.313C451.899 274.545 452.847 275.987 453.804 277.122Z" fill="#3C8F7C"/>
<path d="M445.966 287.35C446.628 287.701 448.932 288.334 450.091 290.06C451.403 291.593 451.569 294.218 451.483 294.164C451.36 294.277 453.126 291.633 453.049 288.802C453.212 285.975 451.531 282.962 450.051 282.405C447.312 280.854 443.805 282.237 443.519 283.76C443.187 285.294 444.595 286.494 445.966 287.35Z" fill="#3C8F7C"/>
<path d="M437.718 302.843C438.428 303.077 440.804 303.315 442.237 304.821C443.788 306.112 444.393 308.672 444.298 308.634C444.196 308.765 445.491 305.863 444.94 303.085C444.627 300.27 442.465 297.582 440.911 297.281C437.949 296.215 434.726 298.167 434.7 299.716C434.63 301.283 436.218 302.231 437.718 302.843Z" fill="#3C8F7C"/>
<path d="M462.127 313.635C462.644 313.958 464.482 314.604 465.327 316.074C466.304 317.395 466.29 319.541 466.225 319.491C466.115 319.576 467.705 317.526 467.802 315.22C468.097 312.93 466.904 310.383 465.731 309.844C463.59 308.427 460.659 309.353 460.337 310.575C459.983 311.803 461.058 312.861 462.127 313.635Z" fill="#3C8F7C"/>
<path d="M474.834 270.543C474.526 270.288 473.746 269.347 472.639 268.988C471.597 268.549 470.228 268.691 470.273 268.725C470.24 268.786 471.232 267.812 472.691 267.616C474.095 267.314 475.961 267.792 476.539 268.384C477.872 269.436 477.863 271.057 477.145 271.304C476.434 271.572 475.542 271.064 474.834 270.543Z" fill="#3C8F7C"/>
<path d="M471.877 263.958C471.889 264.36 472.158 265.551 471.766 266.647C471.478 267.74 470.532 268.736 470.532 268.683C470.463 268.671 471.841 268.477 472.886 267.445C473.982 266.516 474.743 264.745 474.626 263.926C474.605 262.229 473.317 261.244 472.685 261.662C472.035 262.065 471.895 263.079 471.877 263.958Z" fill="#3C8F7C"/>
<path d="M495.182 300.163C494.871 299.909 494.09 298.968 492.985 298.609C491.943 298.17 490.574 298.313 490.618 298.344C490.584 298.408 491.579 297.433 493.035 297.235C494.441 296.936 496.309 297.413 496.883 298.003C498.217 299.057 498.208 300.678 497.492 300.925C496.78 301.193 495.888 300.686 495.182 300.163Z" fill="#3C8F7C"/>
<path d="M491.61 293.523C491.66 293.921 492.025 295.088 491.722 296.211C491.523 297.324 490.663 298.396 490.66 298.34C490.588 298.334 491.947 298.029 492.903 296.916C493.919 295.898 494.533 294.073 494.352 293.267C494.193 291.575 492.829 290.7 492.23 291.167C491.616 291.623 491.56 292.645 491.61 293.523Z" fill="#3C8F7C"/>
<path d="M489.125 336.434C474.053 338.087 460.014 344.74 446.499 351.228C437.384 355.604 437.843 356.85 435.987 357.502C435.688 357.607 435.386 357.28 435.534 356.991C436.246 355.576 438.121 354.62 439.422 353.805C440.939 352.859 442.524 352.021 444.131 351.24C447.572 349.57 451.099 348.068 454.605 346.545C461.741 343.445 468.99 340.529 476.526 338.556C480.658 337.474 484.861 336.694 489.116 336.311C489.196 336.304 489.205 336.424 489.125 336.434Z" fill="#3C8F7C"/>
<path d="M475.542 331.759C475.639 332.379 476.284 334.174 475.887 335.947C475.651 337.696 474.373 339.423 474.364 339.338C474.255 339.332 476.356 338.77 477.776 336.969C479.296 335.317 480.135 332.429 479.799 331.182C479.442 328.554 477.256 327.276 476.353 328.045C475.427 328.793 475.403 330.392 475.542 331.759Z" fill="#3C8F7C"/>
<path d="M462.258 336.516C462.358 337.134 463 338.929 462.603 340.704C462.367 342.453 461.091 344.18 461.082 344.093C460.973 344.087 463.071 343.524 464.494 341.726C466.015 340.074 466.854 337.183 466.518 335.937C466.159 333.309 463.973 332.031 463.071 332.8C462.146 333.548 462.119 335.149 462.258 336.516Z" fill="#3C8F7C"/>
<path d="M448.767 342.53C448.864 343.148 449.506 344.943 449.111 346.718C448.876 348.467 447.599 350.194 447.59 350.107C447.479 350.103 449.58 349.539 451.001 347.74C452.521 346.088 453.36 343.198 453.022 341.952C452.667 339.325 450.48 338.045 449.578 338.814C448.653 339.563 448.627 341.163 448.767 342.53Z" fill="#3C8F7C"/>
<path d="M479.504 344.168C479.232 343.657 478.704 341.975 477.422 340.89C476.271 339.731 474.366 339.172 474.409 339.239C474.329 339.305 476.192 338.548 478.243 339.081C480.285 339.449 482.517 341.11 482.965 342.217C484.168 344.352 483.271 346.514 482.178 346.452C481.079 346.418 480.163 345.252 479.504 344.168Z" fill="#3C8F7C"/>
<path d="M465.692 349.057C465.419 348.546 464.891 346.864 463.608 345.778C462.457 344.62 460.552 344.061 460.593 344.128C460.516 344.194 462.38 343.437 464.431 343.97C466.472 344.338 468.704 345.998 469.152 347.106C470.354 349.241 469.458 351.402 468.363 351.341C467.265 351.307 466.354 350.141 465.692 349.057Z" fill="#3C8F7C"/>
<path d="M490.022 339.134C489.786 338.849 489.23 337.863 488.283 337.352C487.41 336.775 486.139 336.676 486.173 336.714C486.133 336.765 487.202 336.044 488.559 336.108C489.892 336.07 491.51 336.817 491.939 337.453C492.977 338.635 492.7 340.111 492.004 340.216C491.309 340.341 490.582 339.729 490.022 339.134Z" fill="#3C8F7C"/>
<path d="M488.43 332.641C488.375 333.007 488.421 334.139 487.879 335.072C487.434 336.018 486.403 336.769 486.412 336.718C486.353 336.696 487.641 336.751 488.765 335.987C489.919 335.323 490.91 333.837 490.941 333.073C491.207 331.522 490.198 330.408 489.551 330.684C488.895 330.941 488.595 331.842 488.43 332.641Z" fill="#3C8F7C"/>
<path d="M100.203 244.272C82.4906 228.477 73.3831 205.797 68.862 189.549C63.9537 171.913 63.2388 157.836 63.232 157.695L62.2693 157.636C62.276 157.779 62.9941 171.958 67.9321 189.714C72.4952 206.12 81.6986 229.034 99.6306 245.022L100.203 244.272Z" fill="#3C8F7C"/>
<path d="M65.2494 153.613C66.1224 157.674 65.3917 161.511 63.5303 164.28C60.6118 162.131 58.3166 158.69 57.4436 154.629C56.5708 150.568 57.3016 146.731 59.1629 143.961C62.0815 146.109 64.3766 149.552 65.2494 153.613Z" fill="#3C8F7C"/>
<path d="M59.8167 165.177C62.8684 168.016 64.6523 171.746 64.998 175.338C61.648 175.488 57.9622 174.129 54.9105 171.291C51.8588 168.45 50.0749 164.722 49.7292 161.13C53.0793 160.978 56.7651 162.339 59.8167 165.177Z" fill="#3C8F7C"/>
<path d="M58.385 177.327C62.1774 178.517 65.2877 181.158 67.1284 184.365C64.376 186.134 60.6889 186.641 56.8965 185.453C53.1039 184.262 49.9938 181.622 48.1531 178.412C50.9054 176.645 54.5924 176.136 58.385 177.327Z" fill="#3C8F7C"/>
<path d="M64.2256 191.943C67.2296 192.891 69.6315 195.314 70.992 198.375C68.7145 200.288 65.7322 201.013 62.728 200.067C59.7241 199.118 57.3222 196.695 55.9614 193.634C58.2389 191.721 61.2215 190.996 64.2256 191.943Z" fill="#3C8F7C"/>
<path d="M69.3551 171.083C71.7192 168.702 74.8505 167.687 77.8814 168.014C78.0494 171.221 76.9432 174.472 74.579 176.853C72.2149 179.233 69.0835 180.247 66.0525 179.922C65.8847 176.715 66.9908 173.462 69.3551 171.083Z" fill="#3C8F7C"/>
<path d="M72.0954 181.558C74.4597 179.177 77.591 178.163 80.6219 178.488C80.7899 181.697 79.6837 184.948 77.3194 187.327C74.9553 189.708 71.824 190.722 68.7929 190.397C68.6252 187.188 69.7313 183.938 72.0954 181.558Z" fill="#3C8F7C"/>
<path d="M89.5283 265.69C73.1719 263.307 59.1741 253.616 50.3119 245.906C40.6907 237.538 34.8738 229.63 34.8161 229.551L34.2335 229.886C34.2918 229.965 40.1503 237.933 49.8339 246.358C58.7823 254.145 72.9248 263.933 89.4842 266.348L89.5283 265.69Z" fill="#50BFA5"/>
<path d="M34.4222 226.404C36.488 228.428 37.5351 230.94 37.5161 233.264C34.9951 233.135 32.3398 232.014 30.2741 229.989C28.2085 227.963 27.1612 225.453 27.1802 223.127C29.7014 223.258 32.3565 224.377 34.4222 226.404Z" fill="#50BFA5"/>
<path d="M35.7015 235.211C38.565 235.69 41.0329 237.172 42.6119 239.127C40.723 240.502 38.0588 241.126 35.1953 240.647C32.3318 240.167 29.8637 238.683 28.2849 236.728C30.1738 235.355 32.8382 234.731 35.7015 235.211Z" fill="#50BFA5"/>
<path d="M39.5312 242.822C42.1924 242.059 45.0137 242.4 47.3148 243.559C46.3931 245.643 44.4448 247.352 41.7837 248.117C39.1225 248.88 36.3012 248.539 34.0001 247.38C34.9219 245.296 36.8702 243.586 39.5312 242.822Z" fill="#50BFA5"/>
<path d="M48.5351 249.077C50.645 248.475 52.9711 248.963 54.9364 250.218C54.3467 252.205 52.8912 253.772 50.7815 254.373C48.6716 254.975 46.3455 254.487 44.38 253.231C44.9699 251.245 46.4252 249.68 48.5351 249.077Z" fill="#50BFA5"/>
<path d="M43.5122 234.983C43.9732 232.691 45.404 230.9 47.2909 229.928C48.6193 231.727 49.2239 234.042 48.763 236.332C48.302 238.622 46.8709 240.415 44.9841 241.388C43.6556 239.589 43.051 237.273 43.5122 234.983Z" fill="#50BFA5"/>
<path d="M49.1245 240.02C49.5857 237.728 51.0166 235.938 52.9034 234.963C54.2319 236.764 54.8363 239.079 54.3753 241.369C53.9143 243.659 52.4833 245.452 50.5966 246.425C49.2682 244.624 48.6636 242.31 49.1245 240.02Z" fill="#50BFA5"/>
<path d="M99.3774 314.646C80.5096 321.809 59.7403 318.026 45.6394 313.59C30.3315 308.774 19.3553 302.174 19.2459 302.108L18.8278 302.907C18.9375 302.974 29.9939 309.626 45.4031 314.476C59.6423 318.957 80.6255 322.776 99.727 315.524L99.3774 314.646Z" fill="#96D9C9"/>
<path d="M16.9241 298.275C20.3492 299.606 22.9819 302.201 24.366 305.226C21.6022 306.639 18.0963 306.851 14.6712 305.521C11.2461 304.19 8.61335 301.595 7.22925 298.57C9.9929 297.158 13.499 296.946 16.9241 298.275Z" fill="#96D9C9"/>
<path d="M23.6088 308.885C26.9493 307.712 30.4753 308.087 33.3387 309.632C32.1567 312.595 29.6951 315.074 26.3544 316.248C23.0139 317.421 19.488 317.045 16.6245 315.502C17.8068 312.538 20.2683 310.06 23.6088 308.885Z" fill="#96D9C9"/>
<path d="M32.289 316.349C34.6628 313.691 37.8755 312.366 41.0274 312.425C41.3042 315.703 40.2622 319.14 37.8882 321.797C35.5142 324.455 32.3017 325.781 29.1497 325.721C28.873 322.445 29.9152 319.006 32.289 316.349Z" fill="#96D9C9"/>
<path d="M44.434 320.202C46.8078 317.546 50.0205 316.221 53.1723 316.28C53.4492 319.557 52.407 322.994 50.0332 325.652C47.6592 328.309 44.4467 329.634 41.2948 329.576C41.018 326.298 42.06 322.861 44.434 320.202Z" fill="#96D9C9"/>
<path d="M33.0069 307.752C30.9178 305.032 29.9867 301.753 30.208 298.78C32.9594 299.101 35.7724 300.699 37.8613 303.419C39.9502 306.139 40.8815 309.418 40.66 312.391C37.9088 312.07 35.0959 310.472 33.0069 307.752Z" fill="#96D9C9"/>
<path d="M45.6237 311.7C43.4955 309.012 42.5137 305.745 42.6867 302.762C45.437 303.035 48.2696 304.587 50.398 307.275C52.5263 309.963 53.5081 313.232 53.3352 316.215C50.5846 315.941 47.752 314.39 45.6237 311.7Z" fill="#96D9C9"/>
<path d="M60.395 321.258C60.953 319.842 62.0616 318.857 63.3605 318.451C63.9835 319.761 64.0921 321.316 63.534 322.732C62.976 324.148 61.8674 325.133 60.5685 325.539C59.9453 324.23 59.8371 322.675 60.395 321.258Z" fill="#96D9C9"/>
<path d="M139.873 357.373C139.873 357.373 163.912 262.298 155.94 252.746C144.924 239.543 135.836 283.34 134.944 279.62C126.523 244.489 124.28 199.539 97.1144 194.783C81.6719 192.077 100.682 228.208 99.5377 237.98C98.3941 247.752 70.565 215.308 53.6543 198.311C36.7433 181.314 28.0096 192.075 38.6946 213.448C49.0269 234.115 82.4521 256.7 75.562 259.38C68.6722 262.061 26.8436 235.369 21.7215 246.779C15.441 260.769 78.1858 279.806 72.2774 282.95C66.369 286.092 36.3806 275.741 37.2 286.439C38.0191 297.138 78.3318 296.738 77.6429 301.444C76.5274 309.063 49.8647 291.817 48.6928 302.36C47.4941 313.142 83.77 311.175 83.1416 319.586C82.7805 324.42 74.9967 317.128 73.8497 323.823C71.2346 339.087 119.055 357.682 119.055 357.682L139.873 357.373Z" fill="#3C8F7C"/>
<path d="M158.202 357.954C158.202 357.954 135.324 322.877 124.315 316.254C112.585 309.198 121.515 330.325 121.515 330.325C121.515 330.325 97.5445 301.801 90.8807 307.596C84.2172 313.392 90.2654 320.103 90.2654 320.103C90.2654 320.103 68.745 313.727 64.8769 321.625C58.9334 333.764 94.3639 343.829 94.3639 343.829C94.3639 343.829 79.1542 343.667 81.9525 351.862C86.1726 364.222 158.202 357.954 158.202 357.954Z" fill="#50BFA5"/>
<path d="M64.8771 321.625C68.7451 313.726 90.2656 320.103 90.2656 320.103C90.2656 320.103 84.2173 313.392 90.8809 307.595C97.5447 301.801 116.72 319.148 116.72 319.148C116.72 319.148 114.71 304.842 129.15 317.445C139.464 326.446 158.202 357.954 158.202 357.954L64.8771 321.625Z" fill="#96D9C9"/>
<path d="M130.432 269.882L131.458 269.181C112.832 240.972 107.146 207.479 105.656 184.349C104.039 159.251 106.877 140.594 106.906 140.41L105.634 140.039C105.605 140.227 102.745 159.007 104.368 184.256C105.867 207.582 111.606 241.372 130.432 269.882Z" fill="#96D9C9"/>
<path d="M110.573 136.016C110.613 141.681 108.647 146.366 105.509 149.177C102.321 145.124 100.282 139.653 100.242 133.987C100.201 128.32 102.167 123.635 105.306 120.824C108.493 124.877 110.532 130.348 110.573 136.016Z" fill="#96D9C9"/>
<path d="M100.484 148.753C103.659 153.763 104.962 159.389 104.449 164.217C100.09 162.977 95.7031 159.623 92.5282 154.613C89.3533 149.603 88.0501 143.977 88.5633 139.148C92.9217 140.388 97.3087 143.741 100.484 148.753Z" fill="#96D9C9"/>
<path d="M95.3943 163.971C99.9642 167.149 103.267 171.927 104.783 176.897C100.764 178.018 95.8763 177.099 91.3062 173.919C86.7363 170.742 83.433 165.964 81.9174 160.994C85.9365 159.872 90.8242 160.792 95.3943 163.971Z" fill="#96D9C9"/>
<path d="M101.354 190.54C103.347 191.729 104.861 193.636 105.639 195.685C104.003 196.295 101.945 196.071 99.9516 194.88C97.9586 193.692 96.4443 191.784 95.667 189.736C97.3033 189.126 99.3611 189.349 101.354 190.54Z" fill="#96D9C9"/>
<path d="M102.974 200.381C104.967 201.572 106.481 203.477 107.259 205.528C105.622 206.136 103.565 205.912 101.572 204.724C99.5787 203.535 98.0644 201.627 97.2871 199.577C98.9234 198.969 100.981 199.193 102.974 200.381Z" fill="#96D9C9"/>
<path d="M111.2 160.542C114.882 158.456 119.189 158.478 123.008 160.203C122.368 164.456 120.074 168.218 116.392 170.304C112.709 172.392 108.403 172.368 104.583 170.645C105.224 166.392 107.517 162.63 111.2 160.542Z" fill="#96D9C9"/>
<path d="M111.935 175.37C115.617 173.284 119.923 173.305 123.743 175.031C123.103 179.282 120.809 183.046 117.127 185.132C113.444 187.218 109.138 187.196 105.318 185.471C105.958 181.217 108.252 177.456 111.935 175.37Z" fill="#96D9C9"/>
<path d="M111.204 196.59C113.601 195.233 116.404 195.247 118.89 196.37C118.473 199.137 116.98 201.586 114.584 202.945C112.187 204.302 109.384 204.288 106.898 203.165C107.314 200.397 108.807 197.949 111.204 196.59Z" fill="#96D9C9"/>
<path d="M374.045 280.244C376.206 280.596 376.08 280.949 376.358 280.987C376.686 281.03 380.594 279.069 380.594 279.069C380.594 279.069 392.147 273.366 392.759 273.035L401.1 262.542L407.528 265.507C407.528 265.507 398.149 276.662 397.555 277.154C396.961 277.645 380.395 283.455 378.954 284.016C378.954 284.016 377.5 285.343 376.562 286.145C375.62 286.945 374.365 287.264 374.065 287.447C374.019 287.474 372.983 288.021 371.519 288.34C370.256 288.615 371.307 287.758 371.307 287.758C371.307 287.758 373.544 286.815 373.433 286.644C373.347 286.512 372.159 287.102 370.767 287.421C370.409 287.502 370.055 287.583 369.729 287.653C368.875 287.837 368.5 287.348 369.358 287.007C369.66 286.888 370.168 286.7 370.553 286.621C370.966 286.533 371.315 286.315 371.651 286.189C372.317 285.935 372.805 285.759 372.779 285.737C372.743 285.707 372.839 285.559 372.454 285.634C371.994 285.725 371.064 286.139 370.375 286.217C369.985 286.262 369.174 286.405 369.174 286.405C369.174 286.405 367.741 286.541 367.731 286.341C367.71 285.901 368.593 285.658 369.135 285.668C369.476 285.493 370.334 285.369 370.334 285.369C370.334 285.369 371.994 284.711 371.899 284.465C371.86 284.368 370.855 284.519 369.786 284.592C368.658 284.669 367.839 284.669 367.777 284.449C367.684 284.103 368.583 283.972 368.583 283.972C368.583 283.972 369.376 283.857 369.634 283.798C369.936 283.728 370.829 283.447 370.829 283.447C370.829 283.447 373.89 282.324 373.779 282.1C373.668 281.874 373.161 281.401 372.947 281.403C372.73 281.403 372.345 281.619 372.131 281.621C371.914 281.621 371.452 281.579 371.418 281.308C371.385 281.036 372.583 280.476 372.583 280.476C372.583 280.476 373.417 280.143 374.045 280.244Z" fill="#F8A492"/>
<path d="M395.295 269.042C395.295 269.042 397.376 270.932 398.243 271.554C398.961 272.071 402.467 273.76 402.467 273.76C402.467 273.76 405.956 268.42 407.48 265.741C409.329 262.491 410.612 257.659 410.175 257.528C408.947 257.16 407.259 256.936 405.698 257.651C400.303 260.127 395.295 269.042 395.295 269.042Z" fill="#355389"/>
<path d="M376.065 283.035C375.138 283.182 374.192 283.005 373.781 282.157C373.69 283.164 375.212 283.663 376.065 283.035Z" fill="#FE875E"/>
<path d="M117.461 245.571C117.59 242.461 117.134 239.389 115.748 236.495C114.556 234.003 111.606 232.588 108.916 232.586C100.374 232.574 99.2874 243.909 93.8501 248.281C92.1886 249.617 90.3315 250.704 88.7594 252.146C82.954 257.465 85.5688 267.313 90.8994 271.978C94.5987 275.213 100.412 277.053 104.971 274.521C107.351 273.202 109.158 271.007 110.445 268.6C112.272 265.187 113.449 261.249 114.749 257.61C116.132 253.737 117.29 249.706 117.461 245.571Z" fill="#13375B"/>
<path d="M118.856 260.632C116.188 252.538 112.666 252.665 112.666 252.665L115.512 269.899C117.16 269.45 119.305 268.447 120.951 267.982C120.405 265.422 119.514 262.625 118.856 260.632Z" fill="#633A76"/>
<path d="M132.341 288.237L122.586 280.797C122.586 280.797 121.605 273.854 120.291 267.695C118.645 268.158 117.16 269.45 115.512 269.9L117.992 283.695L130.777 290.292L134.388 294.931L135.21 290.167L132.341 288.237Z" fill="#F48C7F"/>
<path d="M221.559 276.828C224.587 276.828 227.428 277.627 229.887 279.023C230.198 279.2 230.534 279.36 230.893 279.509C238.389 282.587 246.59 276.886 246.59 268.782V228.93H206.739C198.635 228.93 192.934 220.727 196.012 213.233C196.161 212.873 196.321 212.536 196.497 212.225C197.894 209.768 198.692 206.926 198.692 203.897C198.692 194.299 190.689 186.569 180.992 187.019C172.217 187.425 165.15 194.634 164.905 203.416C164.818 206.538 165.58 209.475 166.976 212.017C167.149 212.332 167.309 212.675 167.455 213.039C170.509 220.658 164.716 228.93 156.509 228.93H117V319.736C117 341.156 134.365 358.52 155.785 358.52H246.59V318.801C246.59 310.657 238.363 304.92 230.82 307.989C230.459 308.136 230.12 308.296 229.809 308.47C227.121 309.98 223.981 310.774 220.641 310.598C212.036 310.142 205.087 303.149 204.681 294.544C204.223 284.839 211.955 276.828 221.559 276.828Z" fill="#514EE8"/>
<path d="M307.629 254.51C307.767 251.483 308.699 248.682 310.21 246.293C310.398 245.99 310.577 245.661 310.74 245.31C314.164 237.967 308.855 229.508 300.759 229.13L260.951 227.268L259.09 267.077C258.711 275.171 250.251 280.482 242.909 277.057C242.557 276.893 242.227 276.716 241.925 276.526C239.537 275.017 236.735 274.086 233.708 273.945C224.12 273.497 216.026 281.13 216.022 290.837C216.018 299.622 222.888 307.017 231.65 307.673C234.763 307.905 237.736 307.281 240.337 306.005C240.662 305.847 241.011 305.704 241.383 305.575C249.137 302.879 257.126 309.052 256.744 317.251L254.899 356.716L345.606 360.957C367 361.957 385.159 345.422 386.16 324.026L390.398 233.319L350.724 231.465C342.591 231.085 336.475 239.035 339.187 246.713C339.319 247.081 339.462 247.426 339.621 247.745C341.003 250.5 341.65 253.674 341.318 257.002C340.461 265.576 333.152 272.192 324.536 272.196C314.82 272.2 307.178 264.102 307.629 254.51Z" fill="#9C9AFE"/>
<path d="M196.704 191.83C196.857 194.855 196.203 197.733 194.932 200.257C194.771 200.576 194.626 200.92 194.498 201.287C191.8 208.927 197.905 216.834 205.997 216.425L245.799 214.425L243.798 174.623C243.392 166.531 251.296 160.423 258.937 163.121C259.303 163.25 259.648 163.395 259.967 163.555C262.491 164.827 265.369 165.481 268.396 165.33C277.982 164.847 285.299 156.465 284.362 146.804C283.517 138.06 275.963 131.365 267.179 131.561C264.055 131.63 261.161 132.539 258.693 134.061C258.386 134.251 258.053 134.427 257.695 134.592C250.24 138.023 241.688 132.654 241.276 124.457L239.291 84.998L148.601 89.5582C127.207 90.6338 110.737 108.849 111.812 130.241L116.373 220.932L156.042 218.937C164.175 218.529 169.491 210.023 166.048 202.644C165.883 202.291 165.706 201.962 165.516 201.659C163.874 199.05 162.923 195.954 162.932 192.61C162.954 183.993 169.589 176.701 178.164 175.863C187.832 174.918 196.223 182.238 196.704 191.83Z" fill="#2421BA"/>
<path d="M278.17 169.863C275.139 169.863 272.298 169.066 269.839 167.669C269.53 167.492 269.192 167.331 268.833 167.184C261.34 164.105 253.135 169.806 253.135 177.91V217.761H292.989C301.092 217.761 306.793 225.964 303.714 233.46C303.568 233.819 303.405 234.156 303.228 234.466C301.833 236.923 301.033 239.766 301.033 242.794C301.033 252.392 309.036 260.122 318.735 259.672C327.509 259.266 334.578 252.058 334.821 243.276C334.909 240.154 334.148 237.216 332.751 234.674C332.576 234.359 332.418 234.017 332.272 233.652C329.217 226.033 335.008 217.761 343.218 217.761H382.726V126.957C382.726 105.537 365.362 88.1726 343.942 88.1726H253.135V127.89C253.135 136.034 261.364 141.77 268.905 138.702C269.268 138.557 269.605 138.396 269.919 138.221C272.604 136.712 275.747 135.917 279.086 136.095C287.689 136.549 294.639 143.541 295.045 152.148C295.505 161.852 287.771 169.863 278.17 169.863Z" fill="#B8C7FF"/>
<path d="M90.7594 345.707C90.7594 345.707 90.1578 349.891 89.1223 351.24C88.7747 351.694 88.14 352.266 87.7234 353.086C87.0748 354.36 87.4334 356.258 87.9118 357.304C88.1572 357.841 87.8945 357.839 88.4538 358.013C90.1096 358.524 91.8713 357.662 92.5765 356.072C92.9704 355.184 93.3158 354 93.3854 352.508C93.5623 348.708 94.741 346.777 94.741 346.777L90.7594 345.707Z" fill="#F7A491"/>
<path d="M108.873 347.621C108.873 347.621 109.244 352.338 108.942 353.871C108.781 354.693 107.882 356.383 108.294 357.155C108.707 357.928 109.178 358.12 109.178 358.12L119.87 358.294C120.453 358.302 120.068 357.928 119.598 357.581C118.829 357.015 118.209 356.64 115.754 355.45C115.594 355.372 115.011 355 114.801 354.871C114.267 354.546 113.732 354.031 113.271 353.518C112.503 352.66 112.436 348.506 112.436 348.506L108.873 347.621Z" fill="#F7A491"/>
<path d="M117.229 284.911C117.229 284.911 118.576 292.57 117.692 297.592C116.808 302.613 112.565 349.162 112.565 349.162L107.849 349.428C107.849 349.428 106.861 329.985 107.038 327.28C107.215 324.576 108.614 320.052 108.614 320.052L108.144 304.353L114.095 283.729L117.229 284.911Z" fill="#355389"/>
<path d="M103.371 283.299C103.371 283.299 99.6581 288.901 98.774 293.536C97.8901 298.172 99.423 312.417 97.7225 318.493C96.8018 321.779 93.3129 326.858 92.7826 331.108C92.2521 335.357 90.1713 346.486 90.1713 346.486L94.8844 347.423L105.838 319.626L114.43 294.501L116.631 281.562L103.371 283.299Z" fill="#466EB6"/>
<path d="M106.377 251.431C106.377 251.431 101.461 251.118 99.5158 253.242C97.5709 255.367 103.83 272.174 104.184 274.878C104.537 277.582 102.381 284.771 102.381 284.771C102.381 284.771 113.929 287.1 117.229 284.911C117.229 284.911 117.583 265.466 117.229 263.535C116.876 261.603 113.929 253.749 113.222 252.976C112.514 252.204 106.377 251.431 106.377 251.431Z" fill="#633A76"/>
<path d="M108.013 244.848C108.013 244.848 107.987 244.993 107.942 245.239C107.723 246.423 106.879 250.353 106.308 251.433C105.619 252.74 108.668 256.903 111.601 256.395C112.475 256.243 110.863 252.57 110.94 252.18C111.089 251.435 111.29 250.419 111.495 249.377C111.611 248.788 111.729 248.192 111.839 247.632C112.153 246.039 112.409 244.737 112.409 244.737L108.013 244.848Z" fill="#F7A491"/>
<path d="M107.942 245.238C107.987 244.993 108.013 244.848 108.013 244.848L112.409 244.737C112.409 244.737 112.153 246.039 111.839 247.631C111.73 248.188 111.613 248.782 111.497 249.367C110.819 249.266 110.109 248.935 109.399 248.311C108.623 247.631 108.115 246.815 107.809 245.942C107.863 245.662 107.908 245.423 107.942 245.238Z" fill="#F47458"/>
<path d="M110.972 234.832C110.972 234.832 108.9 234.593 107.601 236.276C106.302 237.96 104.902 243.166 108.128 245.997C111.355 248.828 114.543 245.623 115.016 242.225C115.489 238.828 115.672 234.709 110.972 234.832Z" fill="#F7A491"/>
<path d="M115.97 242.176C115.585 242.927 114.939 243.343 114.526 243.105C114.114 242.867 114.092 242.065 114.477 241.314C114.862 240.565 115.509 240.149 115.921 240.387C116.333 240.625 116.355 241.425 115.97 242.176Z" fill="#F7A491"/>
<path d="M111.204 234.276C111.204 234.276 108.435 239.226 106.455 239.456C104.475 239.684 104.215 242.314 104.215 242.314C104.215 242.314 104.923 236.253 106.883 235.084C108.844 233.915 111.204 234.276 111.204 234.276Z" fill="#13375B"/>
<path d="M92.8977 355.236C90.329 355.705 88.6198 354.2 87.7305 353.073C87.0776 354.348 86.7591 356.254 87.2395 357.304C87.6622 358.229 88.8983 358.201 89.8716 358.239C90.9007 358.277 91.6968 357.704 92.2073 356.805C92.4456 356.387 92.6917 355.864 92.8977 355.236Z" fill="#0B0036"/>
<path d="M114.799 354.871C111.971 355.598 109.881 355.103 108.712 354.631C108.41 355.487 108.011 356.563 108.223 357.181C108.482 357.94 108.852 358.112 109.178 358.12C111.761 358.189 118.639 358.28 120.609 358.306C120.884 358.31 121.035 357.989 120.859 357.777C120.37 357.193 115.01 355 114.799 354.871Z" fill="#0B0036"/>
<path d="M106.974 240.7C107.135 241.58 106.811 242.386 106.251 242.501C105.69 242.616 105.105 241.998 104.944 241.118C104.783 240.239 105.107 239.432 105.667 239.317C106.228 239.201 106.813 239.821 106.974 240.7Z" fill="#F7A491"/>
<path d="M110.208 243.745L112.708 243.858C112.708 243.858 112.607 244.805 111.507 244.787C110.165 244.765 110.208 243.745 110.208 243.745Z" fill="white"/>
<path d="M323.35 44.4351C323.664 44.4477 324.517 44.734 325.763 47.0914C327.356 50.1013 329.684 59.1942 329.684 59.1942L322.734 61.7832L321.841 59.8846L320.372 45.2728C320.372 45.2728 323.266 44.433 323.35 44.4351Z" fill="#DD513A"/>
<path d="M314.165 43.1238C316.156 43.128 321.068 43.7078 323.352 44.4363C323.352 44.4363 325.029 58.844 321.843 69.7916C321.131 72.2428 322.433 79.9521 322.433 79.9521L301.842 79.68C301.842 79.68 304.283 61.044 303.364 58.0339C302.445 55.0239 302.422 44.5326 302.422 44.5326C302.422 44.5326 302.564 44.5116 307.048 43.7351C309.139 43.3729 312.047 43.1217 314.165 43.1238Z" fill="#F47458"/>
<path d="M311.765 106.694C311.765 106.694 312.221 111.952 313.06 113.408C313.898 114.864 313.016 117.338 312.972 117.679C312.928 118.019 311.209 118.502 308.476 118.211C305.741 117.92 305.785 117.29 306.008 116.272C306.227 115.252 307.681 113.942 307.771 112.97C307.857 112.001 306.932 108.507 306.932 108.507L311.765 106.694Z" fill="#F7A491"/>
<path d="M320.11 75.611C320.11 75.611 334.323 74.8225 337.498 76.745C340.672 78.6674 335.241 88.1015 335.241 88.1015C335.241 88.1015 325.353 87.6453 305.981 88.7619C301.393 89.0269 300.998 76.8014 301.854 75.7892C302.712 74.7791 320.11 75.611 320.11 75.611Z" fill="#2E97A6"/>
<path d="M308.136 118.621C305.32 118.32 305.669 116.937 305.894 115.888C306.038 115.231 306.845 114.457 307.327 113.724C307.578 113.925 307.987 114.278 309.209 114.639C310.478 115.015 312.218 114.272 313.328 113.808C313.721 115.277 313.739 117.154 313.701 117.437C313.659 117.788 310.947 118.92 308.136 118.621Z" fill="#2C3AB1"/>
<path d="M309.771 85.3488C310.34 89.647 313.15 111.038 313.15 111.038L306.626 111.847C306.626 111.847 298.603 83.9267 299.015 79.6566C299.426 75.3844 302.428 75.0259 302.428 75.0259C302.428 75.0259 308.267 73.9743 309.771 85.3488Z" fill="#5AAAB5"/>
<path d="M302.199 46.1337C304.124 45.4124 305.066 62.7564 305.326 69.8962C308.735 70.2256 314.678 69.9004 316.156 69.7878C316.852 69.7357 318.457 69.1478 319.149 69.0582C319.858 68.9644 320.502 68.9164 320.851 68.9769C320.978 68.9998 324.532 70.4528 324.834 70.7717C325.212 71.1657 326.231 72.1643 326.058 72.5937C325.889 73.0252 324.098 71.3929 324.098 71.3929L323.225 70.9031C324.313 71.9662 326.387 73.365 326.089 73.8757C325.797 74.3719 323.927 72.9522 322.591 71.9829C323.738 73.0168 325.157 74.8659 324.83 75.1557C324.534 75.4142 322.918 73.2733 321.19 72.6562C320.55 72.429 319.912 73.0606 319.408 73.1378C319.037 73.194 318.468 73.3129 318.103 73.2107L316.233 72.6791C315.595 72.7375 315.579 73.1148 314.934 73.2503C314.188 73.4109 312.962 73.5776 312.012 73.809C306.529 75.1494 304.703 75.7706 303.025 75.7685C297.945 75.7665 297.649 47.841 302.199 46.1337Z" fill="#F7A491"/>
<path d="M298.546 62.4168C298.185 55.104 298.239 46.0893 302.338 44.5524C303.957 43.9448 306.809 47.5928 306.295 62.5651C304.107 62.7467 300.893 62.8908 298.546 62.4168Z" fill="#DD513A"/>
<path d="M330.846 111.19C330.846 111.19 330.275 113.017 331.296 114.223C332.315 115.429 336.549 116.613 337.107 117.268C337.663 117.921 337.62 118.479 337.62 118.479L325.731 118.151L325.862 114.561L326.409 111.981L330.846 111.19Z" fill="#F7A491"/>
<path d="M332.033 114.824C332.033 114.824 328.98 116.061 327.504 115.329C326.028 114.599 326.074 114.395 325.645 114.668C325.22 114.941 325.066 118.306 325.066 118.306L338.433 118.699C339.362 118.677 339.833 117.992 339.078 117.405C338.558 117.004 337.96 116.735 337.62 116.54C336.573 115.94 332.033 114.824 332.033 114.824Z" fill="#2C3AB1"/>
<path d="M330.476 78.5485C331.395 76.6148 333.486 74.0977 337.163 75.6132C340.669 77.0591 341.61 80.6149 340.504 84.2535C339.398 87.8921 332.114 109.286 331.859 112.228L326.043 112.267C326.043 112.267 327.101 95.3261 327.36 91.2324C327.611 87.2911 328.887 81.8953 330.476 78.5485Z" fill="#5AAAB5"/>
<path d="M339.837 59.2754H320.394C319.883 59.2754 319.419 59.5866 319.221 60.0654L313.238 74.7135H302.519C302.22 74.7135 301.979 74.9573 301.979 75.2576C301.979 75.558 302.22 75.8018 302.519 75.8018H333.025C333.863 75.8018 334.622 75.3077 334.964 74.5416L340.993 61.0688C341.37 60.2265 340.756 59.2754 339.837 59.2754Z" fill="white"/>
<path d="M318.787 25.5258C318.201 25.329 317.624 25.1057 317.067 24.8382C316.437 24.5353 315.621 24.1793 315.106 24.0997C314.021 23.9317 312.157 24.0444 311.126 25.1588C309.846 26.5517 307.567 25.4108 308.027 32.6959C308.546 40.9428 313.132 40.0385 313.242 39.897C313.353 39.7577 317.33 34.6217 317.33 34.6217C317.33 34.6217 318.721 37.6662 318.721 37.5534C318.721 37.4451 325.823 27.8959 318.787 25.5258Z" fill="#0E2E35"/>
<path d="M315.305 40.5069L315.701 43.4527C315.701 43.4527 316.588 47.6983 315.448 48.517C314.307 49.3358 310.596 43.333 310.596 43.333L310.989 35.8658L315.305 40.5069Z" fill="#F7A491"/>
<path d="M310.861 38.2862C311.804 40.8323 314.048 42.3971 315.641 43.0063L315.305 40.5073L310.989 35.8663L310.861 38.2862Z" fill="#F47458"/>
<path d="M315.071 27.7412C317.488 27.3514 319.656 29.2961 319.595 31.716C319.571 32.7672 319.486 34.079 319.264 35.4938C318.741 38.8948 316.417 41.8907 314.884 41.6235C313.349 41.3564 309.488 38.4218 310.169 33.5819C310.588 30.5926 312.535 28.1507 315.071 27.7412Z" fill="#F7A491"/>
<path d="M311.235 34.1581C311.107 34.9049 310.505 35.4251 309.897 35.3194C309.288 35.2136 308.897 34.5207 309.029 33.774C309.156 33.025 309.756 32.5048 310.365 32.6106C310.976 32.7164 311.364 33.4092 311.235 34.1581Z" fill="#F7A491"/>
<path d="M310.363 32.6125C310.363 32.6125 312.22 33.0734 312.907 31.8817C313.596 30.6877 316.059 28.1132 319.187 29.1798C322.316 30.2487 316.434 26.5834 316.184 26.5834C315.932 26.5834 312.929 26.5636 312.929 26.5636C312.929 26.5636 310.614 28.4687 310.53 28.6772C310.445 28.8879 309.777 31.1683 309.777 31.1683L310.363 32.6125Z" fill="#0E2E35"/>
<path d="M313.759 37.5904L317.135 38.235C317.135 38.235 316.812 39.507 315.321 39.2666C313.5 38.9731 313.759 37.5904 313.759 37.5904Z" fill="white"/>
<path d="M256.655 272.627C256.784 273.073 256.857 273.22 257.021 273.519C258.079 275.446 260.535 278.196 260.535 278.196L262.437 273.915C262.437 273.915 262.126 272.57 261.589 270.648C259.755 271.128 258.006 271.405 256.655 272.627Z" fill="#F8A492"/>
<path d="M267.548 268.915C267.548 268.915 256.95 273.479 256.607 273.392C256.387 273.334 252.261 266.429 252.215 259.933C252.195 256.934 255.312 253.325 258.786 254.04C260.537 254.398 260.51 254.886 263.099 258.647C265.688 262.409 267.548 268.915 267.548 268.915Z" fill="#13375B"/>
<path d="M276.593 350.735L276.342 354.905C276.249 355.434 275.884 356.739 275.884 357.221C275.884 359.025 284.454 355.688 282.534 354.887C282.36 354.816 281.449 354.269 281.391 353.655C281.304 352.708 281.08 350.793 281.08 350.793L276.593 350.735Z" fill="#F7A491"/>
<path d="M282.512 354.872C282.512 354.872 280.5 355.422 279.469 355.561C278.439 355.7 277.08 354.537 276.351 354.852C275.549 355.196 275.581 358.307 275.581 358.307C275.581 358.307 286.369 359.192 289.404 358.277C290.606 357.912 286.625 356.157 282.512 354.872Z" fill="#DD513A"/>
<path d="M259.063 350.735L258.81 354.905C258.719 355.434 258.354 356.739 258.354 357.221C258.354 359.025 266.924 355.688 265.002 354.887C264.83 354.816 263.649 353.859 263.592 353.245C263.503 352.3 263.55 350.793 263.55 350.793L259.063 350.735Z" fill="#F7A491"/>
<path d="M264.983 354.871C264.983 354.871 262.97 355.422 261.94 355.561C260.91 355.699 259.551 354.537 258.822 354.852C258.019 355.196 257.988 358.306 257.988 358.306C257.988 358.306 268.826 359.338 271.874 358.277C273.057 357.863 269.095 356.157 264.983 354.871Z" fill="#DD513A"/>
<path d="M261.682 274.935L269.23 264.361C269.262 264.27 269.331 264.079 269.436 263.79C269.816 262.74 270.607 260.557 271.296 258.386L271.302 258.362C271.52 257.604 271.977 256.28 272.421 254.999C272.914 253.574 273.527 251.807 273.548 251.506C273.531 251.455 273.495 251.362 273.447 251.239C273.17 250.522 272.796 248.81 272.663 248.067C272.58 247.594 272.495 246.441 273.059 246.441C273.943 246.441 273.523 247.592 273.931 248.309C274.079 247.83 274.382 246.877 274.543 245.914L274.691 243.666C274.719 243.497 274.539 242.257 275.161 242.257H275.191C275.747 242.299 275.735 243.616 275.967 245.847C276.04 245.589 276.114 245.28 276.169 244.997C276.163 244.844 276.274 244.173 276.357 243.82C276.246 243.198 276.312 242.217 276.973 242.311C277.304 242.356 277.277 243.725 277.277 243.725C277.275 243.911 277.255 245.357 277.265 245.645C277.332 245.159 277.597 243.089 278.116 243.089C278.546 243.089 278.582 243.646 278.572 244.087C278.568 244.347 278.297 246.589 278.283 246.851C278.485 246.51 278.725 244.535 278.927 244.535C279.765 244.535 279.462 247.344 279.153 248.075C279.125 248.15 279.093 248.297 279.057 248.467C278.952 248.969 278.778 249.807 278.338 250.557C277.811 251.459 277.084 252.893 276.973 253.113C276.892 253.56 276.639 255.171 276.322 257.198C276.185 258.063 276.036 259.014 275.882 259.999L275.874 259.997C275.844 260.211 275.688 260.888 275.09 263.43C274.273 266.908 274.188 267.059 274.153 267.122C273.798 267.75 265.66 278.8 265.313 279.271L265.109 279.549L261.682 274.935Z" fill="#F7A491"/>
<path d="M275.72 250.276C275.72 250.276 275.108 248.709 274.018 248.705C274.018 248.705 274.626 248.485 275.149 248.899C275.672 249.313 275.72 250.276 275.72 250.276Z" fill="#F47458"/>
<path d="M259.86 247.249L258.887 253.392C258.887 253.392 262.59 256.366 264.747 255.738C266.558 255.213 265.317 252.845 265.317 252.845C265.317 252.845 264.353 249.565 264.648 247.845C264.943 246.126 259.86 247.249 259.86 247.249Z" fill="#F7A491"/>
<path d="M260.557 249.105C261.484 249.545 263.319 250.141 264.747 250.288C264.61 249.426 264.533 248.517 264.648 247.846C264.785 247.053 263.774 246.865 262.649 246.893C261.173 247.018 259.86 247.249 259.86 247.249L259.672 248.43C259.953 248.725 260.248 248.961 260.557 249.105Z" fill="#FE875E"/>
<path d="M255.187 240.161C255.034 240.161 256.651 247.025 259.153 248.206C261.653 249.387 265.383 248.773 266.082 246.922C266.857 244.878 264.034 237.875 260.516 236.986C256.997 236.096 255.187 240.161 255.187 240.161Z" fill="#F7A491"/>
<path d="M258.081 233.854C256.084 235.007 255.167 236.717 254.858 237.416C253.921 237.862 252.786 238.822 252.241 241.417C251.572 244.605 253.953 247.063 256.476 247.802C259 248.541 259.39 250.211 259.39 250.211L259.678 248.414C259.678 248.414 259.115 246.849 258.271 246.065C257.427 245.282 258.671 244.141 258.78 243.21C258.865 242.493 258.337 241.1 258.451 239.924C258.451 239.924 259.854 237.798 261.237 237.273C263.594 236.378 260.644 232.376 258.081 233.854Z" fill="#13375B"/>
<path d="M259.145 244.405C259.472 245.197 259.337 245.985 258.846 246.164C258.354 246.34 257.691 245.843 257.364 245.05C257.037 244.258 257.17 243.47 257.663 243.291C258.154 243.113 258.818 243.612 259.145 244.405Z" fill="#F7A491"/>
<path d="M268.461 275.104L283.019 272.73C283.019 272.73 281.363 268.56 280.771 268.56C280.179 268.56 269.763 273.109 269.763 273.109L268.935 274.771L268.461 275.104Z" fill="#F8A492"/>
<path d="M261.005 285.086C261.005 285.086 259.553 292.106 260.143 297.431C260.735 302.754 260.783 321.664 260.783 321.664L258.523 351.922L263.881 352.039C263.881 352.039 270.236 321.795 270.117 322.572C270 323.348 272.249 301.278 272.249 301.278L264.674 284.42L261.005 285.086Z" fill="#05226C"/>
<path d="M262.425 284.753C262.425 284.753 261.478 291.074 262.661 293.847C263.846 296.621 272.813 323.825 272.932 326.042C273.051 328.261 276.033 352.777 276.033 352.777L282.263 352.603L283.612 325.345L280.789 291.086L278.049 282.423L262.425 284.753Z" fill="#043566"/>
<path d="M258.887 253.392C258.887 253.392 260.424 254.4 261.857 254.284C263.291 254.169 265.317 252.845 265.317 252.845L265.034 251.891C265.034 251.891 261.328 251.35 261.235 251.409C261.142 251.467 258.887 253.392 258.887 253.392Z" fill="#F7A491"/>
<path d="M275.264 268.355C275.264 268.355 280.771 273.553 283.257 272.665C285.743 271.778 286.771 268.745 280.706 264.307C275.278 260.336 275.264 268.355 275.264 268.355Z" fill="#F8A492"/>
<path d="M278.996 274.771C278.178 270.321 272.249 256.472 271.775 253.921C271.546 252.681 268.346 252.653 265.302 252.816C262.085 252.986 258.887 253.392 258.887 253.392C258.887 253.392 256.039 253.862 254.787 255.034C253.533 256.209 253.2 259.456 255.001 265.621C256.423 270.488 258.186 273.16 259.06 276.704C259.236 277.893 259.386 279.065 259.588 280.436C259.907 285.737 259.585 292.738 259.585 292.738C259.585 292.738 275.09 295.955 280.89 291.074C280.89 291.074 279.834 279.331 278.996 274.771Z" fill="#355389"/>
<path d="M282.948 265.203C282.948 265.203 276.865 270.225 276.51 270.225C276.282 270.225 267.827 264.006 265.876 258.897C264.799 256.073 267.061 252.913 269.644 252.923C271.437 252.931 272.233 253.392 275.783 256.386C279.335 259.381 282.948 265.203 282.948 265.203Z" fill="#466EB6"/>
<path d="M175.919 41.0238C176.916 38.6254 177.93 36.2206 180.517 35.0064C182.611 34.0221 184.798 34.3918 186.658 35.7908C191.93 39.7537 187.336 44.1206 193.336 51.638C195.2 53.9718 197.456 55.8587 198.574 58.5945C200.137 62.4262 198.274 64.2658 195.289 66.0989C181.009 74.8778 173.523 56.8537 173.792 52.7318C173.992 49.6651 175.277 42.5689 175.919 41.0238Z" fill="#13375B"/>
<path d="M161.1 87.737C161.702 87.6427 163.164 86.5948 163.68 86.4984C164.08 86.4262 164.945 86.2937 165.314 86.2395C165.766 84.5532 168.06 75.3573 168.317 72.6613C168.595 69.7425 170.66 57.1099 170.66 57.1099L176.007 58.0815C176.007 58.0815 173.786 67.7993 173.172 72.5128C172.645 76.5597 168.204 85.6593 167.639 86.6189C167.639 86.643 167.638 86.665 167.637 86.6891C167.551 88.1184 166.863 87.6427 166.863 87.6427L165.745 87.9277C165.745 87.9277 161.788 88.3091 161.53 88.4035C161.272 88.4978 160.498 87.8314 161.1 87.737Z" fill="#F7A491"/>
<path d="M175.322 49.725C171.542 51.0059 169.393 61.2818 169.393 61.2818C169.393 61.2818 175.323 62.9383 176.843 62.07C176.843 62.07 178.567 54.4257 179.185 54.6925L175.322 49.725Z" fill="#6A97CE"/>
<path d="M146.084 105.491C144.927 108.542 144.327 111.479 144.273 111.834C144.247 112.006 144.488 112.834 144.466 113.013C142.144 116.178 138.807 116.872 135.948 117.074C137.405 115.651 139.546 114.302 139.648 113.851C139.812 113.134 140.693 109.94 141.126 105.513C142.904 106.337 144.111 105.683 146.084 105.491Z" fill="#F7A491"/>
<path d="M178.979 71.3669L184.087 85.7547C184.087 85.7547 175.878 87.2998 172.81 87.8624C169.741 88.425 152.594 89.1738 152.16 89.4789C151.837 89.7047 148.295 101.161 146.713 107.476C144.918 107.872 141.846 107.397 140.211 106.834C141.094 97.795 144.284 83.4765 145.306 81.9175C146.969 79.3799 178.979 71.3669 178.979 71.3669Z" fill="#652566"/>
<path d="M159.024 111.798C158.459 115.009 158.42 118.009 158.434 118.367C158.44 118.541 158.833 119.31 158.844 119.488C157.157 123.034 154.009 124.34 151.238 125.075C152.403 123.403 154.253 121.677 154.269 121.216C154.296 120.481 154.562 117.177 154.158 112.749C156.059 113.223 157.123 112.357 159.024 111.798Z" fill="#F7A491"/>
<path d="M184.942 72.1135L186.925 75.497C189.94 80.6495 187.628 87.2778 182.062 89.4371C182.032 89.449 182.002 89.4609 181.973 89.4728C179.064 90.5999 162.362 94.55 161.992 94.9303C161.717 95.2116 160.385 107.129 160.015 113.631C158.325 114.354 155.219 114.465 153.508 114.217C152.681 105.174 153.131 90.5108 153.842 88.7873C155.001 85.9823 184.942 72.1135 184.942 72.1135Z" fill="#7D327F"/>
<path d="M158.178 118.468C158.623 117.977 160.255 120.681 160.663 121.257C161.122 121.905 160.992 122.394 160.937 122.495C160.792 122.763 152.183 127.828 150.083 128.189C149.885 128.222 149.541 128.098 149.454 128.022C148.634 127.295 152.411 121.931 154.107 121.228C155.203 120.772 156.177 120.677 158.178 118.468Z" fill="#13375B"/>
<path d="M143.998 111.931C144.527 111.533 145.624 114.495 145.917 115.136C146.246 115.859 146.026 116.317 145.953 116.406C145.761 116.642 136.355 120.004 134.225 119.964C134.024 119.96 133.709 119.772 133.639 119.681C132.969 118.815 137.684 114.253 139.482 113.878C140.644 113.637 141.619 113.728 143.998 111.931Z" fill="#13375B"/>
<path d="M178.906 49.6968H178.906C178.808 49.6968 178.668 49.6618 178.525 49.6187C177.823 49.4913 176.288 49.3083 175.094 49.8119C173.641 50.4244 171.391 56.1504 171.525 62.0285C171.578 62.9266 171.633 63.7302 171.679 64.2913C172.046 68.7307 173.319 77.0607 173.388 77.1039C175.121 78.2199 185.574 73.8977 186.293 72.9481C187.012 71.9965 187.436 60.4582 187.784 59.8827L188.472 49.8489C187.259 49.4871 180.765 49.6824 178.906 49.6968Z" fill="#9BC1F9"/>
<path d="M183.143 45.9996C183.143 45.9996 182.47 49.4802 182.605 50.8532C182.74 52.2284 182.092 56.6543 179.185 56.6689C176.278 56.6814 178.633 51.0411 178.907 49.6951C179.18 48.3492 179.245 44.1841 179.245 44.1841L183.143 45.9996Z" fill="#F7A491"/>
<path d="M179.185 46.275C179.23 45.1336 179.245 44.1841 179.245 44.1841L183.143 45.9996C183.143 45.9996 183.006 46.7111 182.867 47.6188C181.161 47.9611 179.925 47.3309 179.185 46.275Z" fill="#F47458"/>
<path d="M184.568 36.3917C184.568 36.3917 186.069 37.2241 186.618 39.0304C187.169 40.8368 186.543 45.4964 182.663 46.6227C178.783 47.7469 177.102 44.0569 177.901 41.1715C178.7 38.286 180.439 34.6326 184.568 36.3917Z" fill="#F7A491"/>
<path d="M177.415 40.054C177.491 40.8283 177.919 41.4202 178.37 41.3777C178.822 41.3332 179.126 40.6692 179.05 39.8927C178.974 39.1184 178.546 38.5265 178.095 38.5711C177.644 38.6156 177.34 39.2796 177.415 40.054Z" fill="#F7A491"/>
<path d="M184.112 36.1565C184.112 36.1565 184.815 41.3554 186.497 42.2931C188.177 43.2308 187.474 45.5376 187.474 45.5376C187.474 45.5376 188.999 40.1827 187.67 38.4633C186.34 36.7438 184.112 36.1565 184.112 36.1565Z" fill="#13375B"/>
<path d="M185.501 43.0391C185.045 43.7174 185.047 44.5152 185.505 44.8239C185.962 45.1326 186.703 44.8323 187.159 44.1541C187.614 43.478 187.614 42.678 187.155 42.3714C186.697 42.0628 185.956 42.363 185.501 43.0391Z" fill="#F7A491"/>
<path d="M179.849 43.3283L182.583 44.0166C182.583 44.0166 182.255 45.0542 181.043 44.7885C179.566 44.4622 179.849 43.3283 179.849 43.3283Z" fill="white"/>
<path d="M193.424 87.3037C193.555 87.2977 205.213 86.7114 205.213 86.7114C205.213 86.7114 200.375 90.188 200.276 90.188C200.177 90.188 196.423 88.7062 196.259 88.7062C196.094 88.7062 193.424 87.3037 193.424 87.3037Z" fill="#50BFA5"/>
<path d="M429.446 350.905L429.68 355.002C429.764 355.521 430.099 356.804 430.099 357.276C430.099 359.049 422.233 355.77 423.996 354.986C424.154 354.915 424.989 354.376 425.043 353.773C425.125 352.842 425.329 350.963 425.329 350.963L429.446 350.905Z" fill="#F7A491"/>
<path d="M423.92 355.004C423.92 355.004 425.768 355.545 426.713 355.681C427.66 355.816 428.904 354.675 429.574 354.984C430.312 355.323 430.282 358.378 430.282 358.378C430.282 358.378 420.379 359.247 417.594 358.348C416.491 357.991 420.144 356.266 423.92 355.004Z" fill="#0B0036"/>
<path d="M442.543 350.694L442.778 354.79C442.862 355.309 443.196 356.593 443.196 357.064C443.196 358.837 435.33 355.559 437.092 354.774C437.251 354.703 438.335 353.764 438.389 353.16C438.47 352.231 438.428 350.751 438.428 350.751L442.543 350.694Z" fill="#F7A491"/>
<path d="M437.115 354.757C437.115 354.757 438.96 355.299 439.907 355.434C440.852 355.571 442.099 354.43 442.769 354.737C443.504 355.077 443.535 358.132 443.535 358.132C443.535 358.132 433.701 358.536 430.788 358.102C429.641 357.932 433.339 356.02 437.115 354.757Z" fill="#0B0036"/>
<path d="M440.214 285.745C440.214 285.745 441.547 292.643 441.004 297.874C440.461 303.104 440.419 321.684 440.419 321.684L442.924 351.401L437.572 351.525C437.572 351.525 431.74 321.813 431.846 322.575C431.956 323.338 429.892 301.654 429.892 301.654L436.844 285.091L440.214 285.745Z" fill="#355389"/>
<path d="M438.346 281.292C438.346 281.292 444.387 287.653 442.14 294.6C441.239 297.391 432.821 324.053 432.712 326.232C432.605 328.411 429.867 352.498 429.867 352.498L424.149 352.326L422.91 325.545L424.545 289.461L428.016 283.376L438.346 281.292Z" fill="#466EB6"/>
<path d="M401.683 260.587C403.662 258.38 407.965 255.24 407.965 255.24C407.965 255.24 410.529 253.051 411.572 252.69C413.112 252.16 415.746 250.745 419.56 256.522C422.286 260.656 439.5 282.061 442.324 282.78L423.874 291.607C423.368 287.391 414.25 279.426 412.939 277.94C410.003 274.62 399.81 262.677 401.683 260.587Z" fill="#F47458"/>
<path d="M402.543 251.619L408.289 254.983C408.289 254.983 408.452 259.89 406.573 261.164C404.994 262.233 403.796 259.666 403.796 259.666C403.796 259.666 401.658 256.704 400.035 255.783C398.413 254.86 402.543 251.619 402.543 251.619Z" fill="#F7A491"/>
<path d="M403.506 253.779C403.291 254.803 402.792 256.283 402.014 257.501C401.382 256.815 400.67 256.144 400.036 255.783C399.286 255.358 399.764 254.438 400.494 253.571C401.525 252.497 402.543 251.619 402.543 251.619L403.646 252.265C403.718 252.685 403.58 253.438 403.506 253.779Z" fill="#F47458"/>
<path d="M399.549 243.186C399.647 243.067 404.37 248.949 403.788 251.706C403.207 254.466 400.349 256.981 398.365 256.29C396.169 255.523 392.086 248.6 393.549 245.238C395.015 241.878 399.549 243.186 399.549 243.186Z" fill="#F7A491"/>
<path d="M394.374 241.332C396.436 240.185 399.794 239.856 402.306 241.172C405.392 242.786 406.095 246.853 405.127 249.333C404.162 251.813 405.268 253.214 405.268 253.214L403.629 252.259C403.629 252.259 402.674 250.765 402.548 249.577C402.425 248.386 400.687 248.598 399.843 248.057C399.19 247.641 398.356 246.292 397.301 245.591C397.301 245.591 394.645 245.266 393.337 245.999C391.108 247.249 391.425 242.972 394.374 241.332Z" fill="#13375B"/>
<path d="M401.17 249.05C401.155 249.931 401.574 250.652 402.103 250.662C402.632 250.67 403.074 249.963 403.089 249.079C403.104 248.198 402.685 247.475 402.156 247.467C401.627 247.459 401.188 248.166 401.17 249.05Z" fill="#F7A491"/>
<path d="M396.331 253.731L398.833 251.861C398.833 251.861 399.495 252.873 398.418 253.727C397.106 254.769 396.331 253.731 396.331 253.731Z" fill="white"/>
<path d="M390.05 290.937C390.678 290.022 390.949 288.701 391.817 287.693C392.107 287.354 392.571 286.973 393.098 286.593C397.265 284.154 408.122 277.869 408.544 277.381C409.045 276.803 416.453 264.493 416.453 264.493L409.8 262.986L403.296 274.469C402.753 274.899 392.429 282.53 392.429 282.53C392.429 282.53 390.377 284.133 389.253 284.883C388.689 285.214 388.138 285.428 387.658 285.596C387.051 285.806 385.899 286.383 385.664 286.587C385.393 286.827 384.849 287.336 384.528 287.647C384.206 287.96 383.816 288.31 383.665 288.497C383.57 288.61 383.286 288.764 383.077 288.869C382.763 289.024 382.806 289.485 383.141 289.58C383.457 289.669 383.884 289.471 384.148 289.348C384.897 288.996 385.809 288.049 385.857 288.164C385.904 288.281 384.979 290.311 384.886 290.551C384.797 290.791 383.731 293.158 383.676 293.685C383.623 294.214 383.94 294.335 384.177 294.142C384.38 293.976 386.092 290.814 386.092 290.814C386.092 290.814 386.313 290.412 386.397 290.642C386.482 290.874 384.934 293.746 384.781 294.218C384.631 294.689 384.752 295.076 385.187 294.911C385.72 294.709 387.183 291.541 387.183 291.541C387.183 291.541 387.373 291.147 387.502 291.284C387.632 291.421 386.276 293.843 386.26 294.123C386.244 294.402 386.498 294.677 386.864 294.444C387.294 294.168 388.576 291.329 388.576 291.329C388.576 291.329 388.737 291.141 388.784 291.274C388.834 291.405 387.824 293.554 387.901 293.867C387.964 294.131 388.201 294.077 388.201 294.077C388.729 294.077 389.425 291.853 390.05 290.937Z" fill="#F8A492"/>
<path d="M414.629 270.997C414.629 270.997 412.462 270.308 411.073 269.67C410.144 269.244 406.082 267.223 406.082 267.223C406.082 267.223 407.833 259.838 409.015 257.182C413.359 247.437 418.294 254.159 418.965 255.726C420.463 259.228 414.629 270.997 414.629 270.997Z" fill="#355389"/>
<path d="M263.259 245.478L265.321 243.935C265.321 243.935 265.868 244.769 264.981 245.474C263.899 246.334 263.259 245.478 263.259 245.478Z" fill="white"/>
<path d="M505.364 358.16H26.2282C25.6292 358.16 25.1438 358.78 25.1438 359.545C25.1438 360.309 25.6292 360.927 26.2282 360.927H505.364C505.963 360.927 506.448 360.309 506.448 359.545C506.448 358.78 505.963 358.16 505.364 358.16Z" fill="white"/>
<path d="M205.48 86.7005C205.431 86.5759 205.321 86.5739 205.21 86.5699C204.129 86.5377 203.048 86.4875 201.976 86.3287C201.796 86.3006 201.619 86.2604 201.454 86.1961C201.156 86.0755 200.863 86.0795 200.56 86.1619C200.397 86.2081 200.23 86.2162 200.063 86.2141C199.519 86.2121 197.967 85.6856 197.171 85.5449C196.988 85.5127 196.843 85.3761 196.797 85.1972C196.013 82.0941 194.331 75.1342 194.114 72.845C193.835 69.9187 191.813 56.7224 191.813 56.7224L186.405 58.2298C186.405 58.2298 188.629 67.9713 189.246 72.6943C189.721 76.342 193.367 84.0817 194.51 86.3066C195.067 87.9627 196.321 88.0089 196.61 88.0451C196.775 88.0652 196.93 88.1456 197.038 88.2742C197.235 88.5033 197.46 88.7043 197.72 88.8671C197.913 88.9877 198.059 89.1464 198.186 89.3313C198.415 89.667 198.622 90.0167 198.825 90.3684C198.962 90.6015 199.102 90.6739 199.301 90.6196C199.516 90.5613 199.619 90.4025 199.615 90.1413C199.609 89.7554 199.484 89.4057 199.291 89.0761C199.108 88.7666 199.123 88.5877 199.334 88.3043C199.456 88.1395 199.581 87.9828 199.74 87.8521C199.902 87.7195 200.073 87.621 200.294 87.6511C200.682 87.7476 201.074 87.826 201.472 87.8702L201.8 87.9365L201.978 87.9747C202.005 87.9828 202.581 88.0451 202.778 88.0451C202.937 88.0451 203.192 88.0571 203.409 88.0672C203.608 88.0772 204.026 87.9727 204.041 87.9727C204.231 87.9687 204.402 87.9004 204.545 87.7717C204.603 87.7175 204.66 87.6592 204.629 87.5687C204.603 87.4863 204.539 87.4522 204.455 87.4381C204.326 87.414 203.655 87.3316 203.661 87.3034C203.86 87.3034 204.485 87.2894 204.684 87.2833C204.953 87.2773 205.184 87.1808 205.371 86.9819C205.445 86.9035 205.53 86.8251 205.48 86.7005Z" fill="#F7A491"/>
<path d="M188.538 49.8257C191.206 49.3407 193.408 61.2827 193.408 61.2827C193.408 61.2827 187.478 62.9371 185.958 62.0698C185.958 62.0698 184.234 54.4249 183.616 54.6921L188.538 49.8257Z" fill="#9BC1F9"/>
<path d="M124 264.476C124.177 263.968 121.715 263.56 121.584 263.049C121.453 262.536 124.692 262.497 124.808 262.047C125.022 261.219 121.258 261.873 121.332 261.484C121.406 261.098 125.254 260.232 124.838 259.567C124.422 258.901 120.942 260.88 120.836 260.43C120.731 259.979 124.239 258.881 124.176 257.891C124.142 257.362 118.419 260.527 117.755 260.24C117.091 259.953 118.469 257.469 117.941 257.098C117.412 256.73 115.895 262.15 115.531 262.33C115.167 262.51 107.434 266.924 104.683 267.625C104.349 266.704 103.626 265.462 103.332 264.59C101.788 265.688 100.642 266.241 99.0483 267.241C100.203 270.133 101.845 273.301 102.65 273.665C105.098 274.771 114.568 266.916 116.458 265.573C118.35 264.228 119.433 264.664 120.712 264.238C121.991 263.814 123.823 264.981 124 264.476Z" fill="#F7A491"/>
<path d="M98.7179 268.63C98.7179 268.63 96.5983 259.27 96.9659 256.554C97.3336 253.838 100.561 251.308 102.798 252.245C105.034 253.186 106.047 266.253 106.047 266.253L98.7179 268.63Z" fill="#633A76"/>
</svg>