<svg width="43" height="43" viewBox="0 0 43 43" fill="none" xmlns="http://www.w3.org/2000/svg">
<path d="M25.8 17.2H8.6V21.5H25.8V17.2Z" fill="url(#paint0_linear_427_1567)"/>
<path d="M34.4 8.6H8.6V12.9H34.4V8.6Z" fill="url(#paint1_linear_427_1567)"/>
<path fill-rule="evenodd" clip-rule="evenodd" d="M0.021521 4.3C0.021521 1.935 1.93499 0 4.3 0H38.7C41.065 0 43 1.935 43 4.3V30.1C43 32.465 41.065 34.4 38.7 34.4H8.6L0 43L0.021521 4.3ZM38.7 4.3H4.3V32.6155L6.81553 30.1H38.7V4.3Z" fill="url(#paint2_linear_427_1567)"/>
<defs>
<linearGradient id="paint0_linear_427_1567" x1="21.5" y1="0" x2="21.5" y2="43" gradientUnits="userSpaceOnUse">
<stop stop-color="#5A5A5A"/>
<stop offset="1" stop-color="#848484"/>
</linearGradient>
<linearGradient id="paint1_linear_427_1567" x1="21.5" y1="0" x2="21.5" y2="43" gradientUnits="userSpaceOnUse">
<stop stop-color="#5A5A5A"/>
<stop offset="1" stop-color="#848484"/>
</linearGradient>
<linearGradient id="paint2_linear_427_1567" x1="21.5" y1="0" x2="21.5" y2="43" gradientUnits="userSpaceOnUse">
<stop stop-color="#5A5A5A"/>
<stop offset="1" stop-color="#848484"/>
</linearGradient>
</defs>
</svg>
