<svg width="405" height="400" viewBox="0 0 405 400" fill="none" xmlns="http://www.w3.org/2000/svg">
<path d="M195.24 93.6889H16.4586L51.6164 153.177L65.8291 123.433H163.822V353.949L195.24 399.309V93.6889Z" fill="url(#paint0_linear_145_168)"/>
<path fill-rule="evenodd" clip-rule="evenodd" d="M387.485 93.6889H211.696V399.309L313.43 223.075L269.295 198.537L338.707 162.394C344.684 159.282 349.702 154.62 353.231 148.904L387.485 93.6889ZM337.367 121.946H240.122V185.152L325.1 139.721C327.732 138.313 329.879 136.155 331.266 133.523L337.367 121.946ZM241.618 217.127L276.028 232.742L241.618 287.025V217.127Z" fill="url(#paint1_linear_145_168)"/>
<path d="M13.6229 124.34L13.6371 124.364L63.2379 210.318L34.6186 188.107C32.6705 200.029 31.8733 212.317 32.3405 224.85C35.2592 303.151 86.6824 368.291 156.811 392.762C69.8851 373.001 3.60018 297.253 0.141166 204.457C-0.911276 176.223 3.95396 149.134 13.6335 124.373L13.6229 124.34Z" fill="url(#paint2_linear_145_168)"/>
<path d="M233.872 399.976L233.858 400L233.881 399.974C260.293 395.927 286.324 386.571 310.396 371.548C389.51 322.172 422.358 227.234 396.111 142.52C409.856 215.129 378.819 291.968 312.062 333.631C301.377 340.3 290.274 345.758 278.913 350.042L283.953 314.298L233.872 399.976Z" fill="url(#paint3_linear_145_168)"/>
<path d="M358.744 75.0053L358.772 75.0053L358.738 74.9979C342.006 54.2843 320.839 36.5517 295.716 23.3406C213.143 -20.0796 114.009 -0.889528 53.3302 64.0634C109.714 15.9261 192.175 4.22606 261.85 40.864C273.002 46.7283 283.308 53.5587 292.72 61.1966L259.061 74.7295L358.744 75.0053Z" fill="url(#paint4_linear_145_168)"/>
<defs>
<linearGradient id="paint0_linear_145_168" x1="202.5" y1="0" x2="202.5" y2="400" gradientUnits="userSpaceOnUse">
<stop stop-color="#AD00FF"/>
<stop offset="1" stop-color="#07B8F9"/>
</linearGradient>
<linearGradient id="paint1_linear_145_168" x1="202.5" y1="0" x2="202.5" y2="400" gradientUnits="userSpaceOnUse">
<stop stop-color="#AD00FF"/>
<stop offset="1" stop-color="#07B8F9"/>
</linearGradient>
<linearGradient id="paint2_linear_145_168" x1="202.5" y1="0" x2="202.5" y2="400" gradientUnits="userSpaceOnUse">
<stop stop-color="#AD00FF"/>
<stop offset="1" stop-color="#07B8F9"/>
</linearGradient>
<linearGradient id="paint3_linear_145_168" x1="202.5" y1="0" x2="202.5" y2="400" gradientUnits="userSpaceOnUse">
<stop stop-color="#AD00FF"/>
<stop offset="1" stop-color="#07B8F9"/>
</linearGradient>
<linearGradient id="paint4_linear_145_168" x1="202.5" y1="0" x2="202.5" y2="400" gradientUnits="userSpaceOnUse">
<stop stop-color="#AD00FF"/>
<stop offset="1" stop-color="#07B8F9"/>
</linearGradient>
</defs>
</svg>
